<mxfile host="app.diagrams.net" modified="2023-11-06T09:17:35.033Z" agent="Mozilla/5.0 (Windows NT 10.0; Win64; x64) AppleWebKit/537.36 (KHTML, like Gecko) Chrome/118.0.0.0 Safari/537.36" etag="IrJ_qscPpUHINCbRbRe8" version="22.0.8" type="device">
  <diagram id="C5RBs43oDa-KdzZeNtuy" name="Page-1">
    <mxGraphModel dx="794" dy="480" grid="1" gridSize="10" guides="1" tooltips="1" connect="1" arrows="1" fold="1" page="1" pageScale="1" pageWidth="827" pageHeight="1169" math="0" shadow="0">
      <root>
        <mxCell id="WIyWlLk6GJQsqaUBKTNV-0" />
        <mxCell id="WIyWlLk6GJQsqaUBKTNV-1" parent="WIyWlLk6GJQsqaUBKTNV-0" />
        <mxCell id="6-pNGo3VhjcwEj1dM8y0-2" value="" style="edgeStyle=orthogonalEdgeStyle;rounded=0;orthogonalLoop=1;jettySize=auto;html=1;labelBackgroundColor=none;strokeColor=#FF6392;fontColor=default;" parent="WIyWlLk6GJQsqaUBKTNV-1" source="6-pNGo3VhjcwEj1dM8y0-0" target="6-pNGo3VhjcwEj1dM8y0-1" edge="1">
          <mxGeometry relative="1" as="geometry" />
        </mxCell>
        <mxCell id="6-pNGo3VhjcwEj1dM8y0-0" value="Start" style="ellipse;whiteSpace=wrap;html=1;labelBackgroundColor=none;fillColor=#FFE45E;strokeColor=#FF6392;fontColor=#5AA9E6;" parent="WIyWlLk6GJQsqaUBKTNV-1" vertex="1">
          <mxGeometry x="200" y="30" width="120" height="60" as="geometry" />
        </mxCell>
        <mxCell id="6-pNGo3VhjcwEj1dM8y0-4" value="" style="edgeStyle=orthogonalEdgeStyle;rounded=0;orthogonalLoop=1;jettySize=auto;html=1;labelBackgroundColor=none;strokeColor=#FF6392;fontColor=default;" parent="WIyWlLk6GJQsqaUBKTNV-1" source="6-pNGo3VhjcwEj1dM8y0-1" target="6-pNGo3VhjcwEj1dM8y0-3" edge="1">
          <mxGeometry relative="1" as="geometry" />
        </mxCell>
        <mxCell id="6-pNGo3VhjcwEj1dM8y0-1" value="a,b" style="shape=parallelogram;perimeter=parallelogramPerimeter;whiteSpace=wrap;html=1;fixedSize=1;labelBackgroundColor=none;fillColor=#FFE45E;strokeColor=#FF6392;fontColor=#5AA9E6;" parent="WIyWlLk6GJQsqaUBKTNV-1" vertex="1">
          <mxGeometry x="200" y="140" width="120" height="50" as="geometry" />
        </mxCell>
        <mxCell id="6-pNGo3VhjcwEj1dM8y0-6" value="" style="edgeStyle=orthogonalEdgeStyle;rounded=0;orthogonalLoop=1;jettySize=auto;html=1;labelBackgroundColor=none;strokeColor=#FF6392;fontColor=default;" parent="WIyWlLk6GJQsqaUBKTNV-1" source="6-pNGo3VhjcwEj1dM8y0-3" target="6-pNGo3VhjcwEj1dM8y0-5" edge="1">
          <mxGeometry relative="1" as="geometry" />
        </mxCell>
        <mxCell id="6-pNGo3VhjcwEj1dM8y0-3" value="Tổng = a + b&lt;br&gt;Hiệu = a - b&lt;br&gt;Tích = a*b&lt;br&gt;Thương = a/b" style="rounded=0;whiteSpace=wrap;html=1;labelBackgroundColor=none;fillColor=#FFE45E;strokeColor=#FF6392;fontColor=#5AA9E6;" parent="WIyWlLk6GJQsqaUBKTNV-1" vertex="1">
          <mxGeometry x="200" y="240" width="120" height="70" as="geometry" />
        </mxCell>
        <mxCell id="6-pNGo3VhjcwEj1dM8y0-8" value="" style="edgeStyle=orthogonalEdgeStyle;rounded=0;orthogonalLoop=1;jettySize=auto;html=1;labelBackgroundColor=none;strokeColor=#FF6392;fontColor=default;" parent="WIyWlLk6GJQsqaUBKTNV-1" source="6-pNGo3VhjcwEj1dM8y0-5" target="6-pNGo3VhjcwEj1dM8y0-7" edge="1">
          <mxGeometry relative="1" as="geometry" />
        </mxCell>
        <mxCell id="6-pNGo3VhjcwEj1dM8y0-10" value="" style="edgeStyle=orthogonalEdgeStyle;rounded=0;orthogonalLoop=1;jettySize=auto;html=1;labelBackgroundColor=none;strokeColor=#FF6392;fontColor=default;" parent="WIyWlLk6GJQsqaUBKTNV-1" source="6-pNGo3VhjcwEj1dM8y0-5" target="6-pNGo3VhjcwEj1dM8y0-9" edge="1">
          <mxGeometry relative="1" as="geometry" />
        </mxCell>
        <mxCell id="6-pNGo3VhjcwEj1dM8y0-5" value="a + b" style="rhombus;whiteSpace=wrap;html=1;labelBackgroundColor=none;fillColor=#FFE45E;strokeColor=#FF6392;fontColor=#5AA9E6;" parent="WIyWlLk6GJQsqaUBKTNV-1" vertex="1">
          <mxGeometry x="200" y="360" width="120" height="80" as="geometry" />
        </mxCell>
        <mxCell id="6-pNGo3VhjcwEj1dM8y0-7" value="In tổng" style="rounded=0;whiteSpace=wrap;html=1;labelBackgroundColor=none;fillColor=#FFE45E;strokeColor=#FF6392;fontColor=#5AA9E6;" parent="WIyWlLk6GJQsqaUBKTNV-1" vertex="1">
          <mxGeometry x="430" y="380" width="96" height="40" as="geometry" />
        </mxCell>
        <mxCell id="6-pNGo3VhjcwEj1dM8y0-12" value="" style="edgeStyle=orthogonalEdgeStyle;rounded=0;orthogonalLoop=1;jettySize=auto;html=1;labelBackgroundColor=none;strokeColor=#FF6392;fontColor=default;" parent="WIyWlLk6GJQsqaUBKTNV-1" source="6-pNGo3VhjcwEj1dM8y0-9" target="6-pNGo3VhjcwEj1dM8y0-11" edge="1">
          <mxGeometry relative="1" as="geometry" />
        </mxCell>
        <mxCell id="6-pNGo3VhjcwEj1dM8y0-14" value="" style="edgeStyle=orthogonalEdgeStyle;rounded=0;orthogonalLoop=1;jettySize=auto;html=1;labelBackgroundColor=none;strokeColor=#FF6392;fontColor=default;" parent="WIyWlLk6GJQsqaUBKTNV-1" source="6-pNGo3VhjcwEj1dM8y0-9" target="6-pNGo3VhjcwEj1dM8y0-13" edge="1">
          <mxGeometry relative="1" as="geometry" />
        </mxCell>
        <mxCell id="6-pNGo3VhjcwEj1dM8y0-9" value="a - b" style="rhombus;whiteSpace=wrap;html=1;labelBackgroundColor=none;fillColor=#FFE45E;strokeColor=#FF6392;fontColor=#5AA9E6;" parent="WIyWlLk6GJQsqaUBKTNV-1" vertex="1">
          <mxGeometry x="200" y="490" width="120" height="70" as="geometry" />
        </mxCell>
        <mxCell id="6-pNGo3VhjcwEj1dM8y0-11" value="In hiệu" style="rounded=0;whiteSpace=wrap;html=1;labelBackgroundColor=none;fillColor=#FFE45E;strokeColor=#FF6392;fontColor=#5AA9E6;" parent="WIyWlLk6GJQsqaUBKTNV-1" vertex="1">
          <mxGeometry x="428" y="502.5" width="100" height="45" as="geometry" />
        </mxCell>
        <mxCell id="6-pNGo3VhjcwEj1dM8y0-16" value="" style="edgeStyle=orthogonalEdgeStyle;rounded=0;orthogonalLoop=1;jettySize=auto;html=1;labelBackgroundColor=none;strokeColor=#FF6392;fontColor=default;" parent="WIyWlLk6GJQsqaUBKTNV-1" source="6-pNGo3VhjcwEj1dM8y0-13" target="6-pNGo3VhjcwEj1dM8y0-15" edge="1">
          <mxGeometry relative="1" as="geometry" />
        </mxCell>
        <mxCell id="6-pNGo3VhjcwEj1dM8y0-18" value="" style="edgeStyle=orthogonalEdgeStyle;rounded=0;orthogonalLoop=1;jettySize=auto;html=1;labelBackgroundColor=none;strokeColor=#FF6392;fontColor=default;" parent="WIyWlLk6GJQsqaUBKTNV-1" source="6-pNGo3VhjcwEj1dM8y0-13" target="6-pNGo3VhjcwEj1dM8y0-17" edge="1">
          <mxGeometry relative="1" as="geometry" />
        </mxCell>
        <mxCell id="6-pNGo3VhjcwEj1dM8y0-13" value="a * b" style="rhombus;whiteSpace=wrap;html=1;labelBackgroundColor=none;fillColor=#FFE45E;strokeColor=#FF6392;fontColor=#5AA9E6;" parent="WIyWlLk6GJQsqaUBKTNV-1" vertex="1">
          <mxGeometry x="200" y="610" width="120" height="70" as="geometry" />
        </mxCell>
        <mxCell id="6-pNGo3VhjcwEj1dM8y0-15" value="In tích" style="rounded=0;whiteSpace=wrap;html=1;labelBackgroundColor=none;fillColor=#FFE45E;strokeColor=#FF6392;fontColor=#5AA9E6;" parent="WIyWlLk6GJQsqaUBKTNV-1" vertex="1">
          <mxGeometry x="428" y="622.5" width="102" height="45" as="geometry" />
        </mxCell>
        <mxCell id="6-pNGo3VhjcwEj1dM8y0-20" value="" style="edgeStyle=orthogonalEdgeStyle;rounded=0;orthogonalLoop=1;jettySize=auto;html=1;labelBackgroundColor=none;strokeColor=#FF6392;fontColor=default;" parent="WIyWlLk6GJQsqaUBKTNV-1" source="6-pNGo3VhjcwEj1dM8y0-17" target="6-pNGo3VhjcwEj1dM8y0-19" edge="1">
          <mxGeometry relative="1" as="geometry" />
        </mxCell>
        <mxCell id="6-pNGo3VhjcwEj1dM8y0-17" value="a / b" style="rhombus;whiteSpace=wrap;html=1;labelBackgroundColor=none;fillColor=#FFE45E;strokeColor=#FF6392;fontColor=#5AA9E6;" parent="WIyWlLk6GJQsqaUBKTNV-1" vertex="1">
          <mxGeometry x="200" y="730" width="120" height="70" as="geometry" />
        </mxCell>
        <mxCell id="6-pNGo3VhjcwEj1dM8y0-19" value="In thương" style="rounded=0;whiteSpace=wrap;html=1;labelBackgroundColor=none;fillColor=#FFE45E;strokeColor=#FF6392;fontColor=#5AA9E6;" parent="WIyWlLk6GJQsqaUBKTNV-1" vertex="1">
          <mxGeometry x="430" y="742.5" width="100" height="45" as="geometry" />
        </mxCell>
        <mxCell id="6-pNGo3VhjcwEj1dM8y0-21" value="End" style="ellipse;whiteSpace=wrap;html=1;labelBackgroundColor=none;fillColor=#FFE45E;strokeColor=#FF6392;fontColor=#5AA9E6;" parent="WIyWlLk6GJQsqaUBKTNV-1" vertex="1">
          <mxGeometry x="640" y="547.5" width="120" height="80" as="geometry" />
        </mxCell>
        <mxCell id="6-pNGo3VhjcwEj1dM8y0-22" value="" style="endArrow=none;html=1;rounded=0;labelBackgroundColor=none;strokeColor=#FF6392;fontColor=default;" parent="WIyWlLk6GJQsqaUBKTNV-1" edge="1">
          <mxGeometry width="50" height="50" relative="1" as="geometry">
            <mxPoint x="526" y="400" as="sourcePoint" />
            <mxPoint x="700" y="400" as="targetPoint" />
          </mxGeometry>
        </mxCell>
        <mxCell id="6-pNGo3VhjcwEj1dM8y0-24" value="" style="endArrow=classic;html=1;rounded=0;entryX=0.5;entryY=0;entryDx=0;entryDy=0;labelBackgroundColor=none;strokeColor=#FF6392;fontColor=default;" parent="WIyWlLk6GJQsqaUBKTNV-1" target="6-pNGo3VhjcwEj1dM8y0-21" edge="1">
          <mxGeometry width="50" height="50" relative="1" as="geometry">
            <mxPoint x="699.5" y="400" as="sourcePoint" />
            <mxPoint x="699.5" y="480" as="targetPoint" />
          </mxGeometry>
        </mxCell>
        <mxCell id="6-pNGo3VhjcwEj1dM8y0-27" value="" style="endArrow=none;html=1;rounded=0;labelBackgroundColor=none;strokeColor=#FF6392;fontColor=default;" parent="WIyWlLk6GJQsqaUBKTNV-1" edge="1">
          <mxGeometry width="50" height="50" relative="1" as="geometry">
            <mxPoint x="530" y="764.5" as="sourcePoint" />
            <mxPoint x="700" y="765" as="targetPoint" />
          </mxGeometry>
        </mxCell>
        <mxCell id="6-pNGo3VhjcwEj1dM8y0-28" value="" style="endArrow=classic;html=1;rounded=0;entryX=0.5;entryY=1;entryDx=0;entryDy=0;labelBackgroundColor=none;strokeColor=#FF6392;fontColor=default;" parent="WIyWlLk6GJQsqaUBKTNV-1" target="6-pNGo3VhjcwEj1dM8y0-21" edge="1">
          <mxGeometry width="50" height="50" relative="1" as="geometry">
            <mxPoint x="700" y="770" as="sourcePoint" />
            <mxPoint x="699.5" y="690" as="targetPoint" />
          </mxGeometry>
        </mxCell>
        <mxCell id="6-pNGo3VhjcwEj1dM8y0-29" value="" style="endArrow=none;html=1;rounded=0;labelBackgroundColor=none;strokeColor=#FF6392;fontColor=default;" parent="WIyWlLk6GJQsqaUBKTNV-1" edge="1">
          <mxGeometry width="50" height="50" relative="1" as="geometry">
            <mxPoint x="530" y="644.5" as="sourcePoint" />
            <mxPoint x="700" y="645" as="targetPoint" />
          </mxGeometry>
        </mxCell>
        <mxCell id="6-pNGo3VhjcwEj1dM8y0-30" value="" style="endArrow=none;html=1;rounded=0;labelBackgroundColor=none;strokeColor=#FF6392;fontColor=default;" parent="WIyWlLk6GJQsqaUBKTNV-1" edge="1">
          <mxGeometry width="50" height="50" relative="1" as="geometry">
            <mxPoint x="526" y="524.5" as="sourcePoint" />
            <mxPoint x="700" y="525" as="targetPoint" />
          </mxGeometry>
        </mxCell>
        <mxCell id="6-pNGo3VhjcwEj1dM8y0-31" value="" style="endArrow=none;html=1;rounded=0;labelBackgroundColor=none;strokeColor=#FF6392;fontColor=default;" parent="WIyWlLk6GJQsqaUBKTNV-1" edge="1">
          <mxGeometry width="50" height="50" relative="1" as="geometry">
            <mxPoint x="600" y="840" as="sourcePoint" />
            <mxPoint x="600" y="400" as="targetPoint" />
          </mxGeometry>
        </mxCell>
        <mxCell id="6-pNGo3VhjcwEj1dM8y0-32" value="" style="endArrow=none;html=1;rounded=0;labelBackgroundColor=none;strokeColor=#FF6392;fontColor=default;" parent="WIyWlLk6GJQsqaUBKTNV-1" edge="1">
          <mxGeometry width="50" height="50" relative="1" as="geometry">
            <mxPoint x="140" y="840" as="sourcePoint" />
            <mxPoint x="600" y="840" as="targetPoint" />
          </mxGeometry>
        </mxCell>
        <mxCell id="6-pNGo3VhjcwEj1dM8y0-33" value="" style="endArrow=none;html=1;rounded=0;labelBackgroundColor=none;strokeColor=#FF6392;fontColor=default;" parent="WIyWlLk6GJQsqaUBKTNV-1" edge="1">
          <mxGeometry width="50" height="50" relative="1" as="geometry">
            <mxPoint x="140" y="837.5" as="sourcePoint" />
            <mxPoint x="140" y="210" as="targetPoint" />
          </mxGeometry>
        </mxCell>
        <mxCell id="6-pNGo3VhjcwEj1dM8y0-34" value="" style="endArrow=classic;html=1;rounded=0;labelBackgroundColor=none;strokeColor=#FF6392;fontColor=default;" parent="WIyWlLk6GJQsqaUBKTNV-1" edge="1">
          <mxGeometry width="50" height="50" relative="1" as="geometry">
            <mxPoint x="140" y="210" as="sourcePoint" />
            <mxPoint x="260" y="210" as="targetPoint" />
          </mxGeometry>
        </mxCell>
      </root>
    </mxGraphModel>
  </diagram>
</mxfile>
